HIERARCHY
ROOT hip
{
	OFFSET 0.000000 0.000000 0.000000 
	CHANNELS 6 Xposition Yposition Zposition Xrotation Zrotation Yrotation
	JOINT abdomen
	{
		OFFSET 0.000000 3.402643 0.000000 
		CHANNELS 3 Xrotation Zrotation Yrotation
		JOINT chest
		{
			OFFSET 0.000000 8.438565 -0.680529 
			CHANNELS 3 Xrotation Zrotation Yrotation
			JOINT neck
			{
				OFFSET 0.000000 10.207942 -0.272212 
				CHANNELS 3 Xrotation Zrotation Yrotation
				JOINT head
				{
					OFFSET 0.000000 3.130431 0.000000 
					CHANNELS 3 Xrotation Zrotation Yrotation
					End Site
					{
						OFFSET 0.000000 3.130435 0.000000 
					}
				}
			}
			JOINT lCollar
			{
				OFFSET 3.470700 6.669187 -0.816635 
				CHANNELS 3 Yrotation Zrotation Xrotation
				JOINT lShldr
				{
					OFFSET 3.198488 0.000000 0.000000 
					CHANNELS 3 Zrotation Yrotation Xrotation
					JOINT lForeArm
					{
						OFFSET 10.139888 0.000000 0.000000 
						CHANNELS 3 Yrotation Zrotation Xrotation
						JOINT lHand
						{
							OFFSET 8.370511 0.000000 0.000000 
							CHANNELS 3 Zrotation Yrotation Xrotation
							End Site
							{
								OFFSET 4.083176 0.000000 0.000000 
							}
						}
					}
				}
			}
			JOINT rCollar
			{
				OFFSET -3.470700 6.669187 -0.816635 
				CHANNELS 3 Yrotation Zrotation Xrotation
				JOINT rShldr
				{
					OFFSET -3.198488 0.000000 0.000000 
					CHANNELS 3 Zrotation Yrotation Xrotation
					JOINT rForeArm
					{
						OFFSET -10.139888 0.000000 0.000000 
						CHANNELS 3 Yrotation Zrotation Xrotation
						JOINT rHand
						{
							OFFSET -8.370511 0.000000 0.000000 
							CHANNELS 3 Zrotation Yrotation Xrotation
							End Site
							{
								OFFSET -4.083176 0.000000 0.000000 
							}
						}
					}
				}
			}
		}
	}
	JOINT lThigh
	{
		OFFSET 5.308129 -1.633274 1.361059 
		CHANNELS 3 Xrotation Zrotation Yrotation
		JOINT lShin
		{
			OFFSET -2.041588 -20.007561 0.000000 
			CHANNELS 3 Xrotation Zrotation Yrotation
			JOINT lFoot
			{
				OFFSET 0.000000 -19.190928 -1.224953 
				CHANNELS 3 Xrotation Yrotation Zrotation
				End Site
				{
					OFFSET 0.000000 -2.449906 4.627600 
				}
			}
		}
	}
	JOINT rThigh
	{
		OFFSET -5.308129 -1.633274 1.361059 
		CHANNELS 3 Xrotation Zrotation Yrotation
		JOINT rShin
		{
			OFFSET 2.041588 -20.007561 0.000000 
			CHANNELS 3 Xrotation Zrotation Yrotation
			JOINT rFoot
			{
				OFFSET 0.000000 -19.190928 -1.224953 
				CHANNELS 3 Xrotation Yrotation Zrotation
				End Site
				{
					OFFSET 0.000000 -2.449906 4.627600 
				}
			}
		}
	}
}
MOTION
Frames: 10
Frame Time: 0.016667
-1.191628 50.256481 0.016263 -4.204703 -5.096428 -11.227084 24.187771 1.695290 3.898243 -22.261648 9.350829 3.207658 10.289351 -10.435816 1.528552 9.729887 -0.419873 0.878883 -0.136730 -9.472521 -0.059402 -70.284416 6.473808 17.249008 -19.815010 -2.359726 -29.751219 -8.837317 13.158060 -2.024878 11.680939 1.494021 -0.048055 66.062889 -3.985567 -4.279294 28.391262 -3.654861 45.607845 18.393719 -6.718720 -2.238719 -20.194910 5.476823 -7.378727 58.505447 0.403871 -3.827706 10.062987 -5.832010 -11.226987 7.162180 5.112829 -0.954912 18.300072 1.571670 1.781570 -8.433870 20.900324 15.399498 
-1.143230 50.302673 0.592669 -4.236722 -4.352396 -12.801835 24.124771 0.954316 4.317107 -24.504848 8.225600 3.661173 14.678650 -9.303492 1.502735 8.436658 -0.878670 1.328268 -2.628138 -6.923380 -0.009684 -72.676788 10.347866 11.134868 -18.413380 -2.386179 -30.026201 -7.899425 13.624410 -1.869898 14.335899 -0.227027 -0.009461 69.366684 -6.221024 -2.596730 30.808371 -3.557317 43.292233 17.828346 -6.051494 -1.952442 -20.974501 4.979860 -6.777254 53.895527 0.111270 -3.663812 8.064715 -3.089484 -11.800090 7.311718 4.597869 0.410992 19.379187 1.532557 1.861884 -8.798362 17.042406 14.969372 
-1.139988 50.264984 1.249719 -4.137725 -3.609505 -13.445572 24.155407 0.428315 4.580242 -27.118181 7.092607 3.957189 18.334831 -8.268834 1.459778 7.833747 -1.552020 1.738701 -4.202121 -5.671682 -0.029075 -73.439743 14.019701 7.748800 -17.281885 -2.309658 -28.949247 -7.628567 13.642555 -1.809029 15.829985 -0.569070 -0.009395 71.600456 -8.075471 -1.313870 32.923725 -3.306318 40.332310 17.005650 -5.131866 -1.587903 -21.350803 4.452131 -6.375316 48.639050 -0.181798 -3.487513 8.673049 -3.563338 -11.696118 7.433634 4.214440 0.837940 20.475910 1.500088 1.962868 -10.158463 13.784845 14.757733 
-1.136747 50.227303 1.906728 -4.057705 -2.860638 -14.090433 24.190147 -0.107038 4.843741 -29.735680 5.979256 4.311553 21.990519 -7.233919 1.486234 7.230941 -2.224997 2.149850 -5.772236 -4.422846 -0.009687 -74.446465 17.652191 4.259652 -16.143372 -2.215964 -27.878946 -7.367412 13.650434 -1.746821 17.324072 -0.911111 -0.009321 73.802185 -9.975275 -0.096425 35.044540 -3.165716 37.364647 16.178387 -4.209055 -1.230215 -21.733768 3.925234 -5.998942 43.372406 -0.481400 -3.252120 9.296762 -4.047750 -11.590697 7.567524 3.837579 1.245917 21.573521 1.460456 2.033197 -11.548130 10.566457 14.474598 
-1.162032 50.119537 2.629575 -3.978463 -2.204789 -14.317615 24.066946 -0.486260 5.214987 -30.294828 4.797149 4.870774 22.662411 -6.560318 1.483919 7.599224 -2.459062 2.238039 -5.742944 -4.452148 -0.009687 -73.497231 18.715170 3.554815 -15.202198 -2.021051 -25.141193 -7.709487 13.959743 -1.869415 17.187410 -0.549761 -0.009329 74.512466 -9.722021 1.331190 37.305996 -2.797051 33.476597 16.498957 -5.288959 -1.574534 -21.598871 3.437138 -5.580369 38.240158 -0.763773 -2.985167 10.178126 -5.515438 -11.289960 7.839200 3.446333 1.332077 22.660721 1.421320 2.102270 -12.549656 8.574529 14.195098 
-1.187315 50.011776 3.352391 -3.907150 -1.540864 -14.536646 23.937878 -0.874732 5.586477 -30.856039 3.626212 5.441019 23.324236 -5.896478 1.481854 7.977406 -2.683354 2.316943 -5.713654 -4.491216 -0.009687 -72.547791 19.788698 2.861534 -14.272785 -1.778915 -22.415062 -8.062429 14.258082 -1.996670 17.050749 -0.188410 -0.009336 75.223274 -9.486238 2.761480 39.595798 -2.587329 29.575310 16.817167 -6.374929 -1.933221 -21.454472 2.948362 -5.153741 33.064377 -1.011426 -2.724487 11.089290 -6.949010 -10.948805 8.108009 3.044634 1.424738 23.737490 1.378164 2.179209 -13.583356 6.586587 13.905570 
-1.220048 49.883831 4.122855 -3.887623 -0.935702 -14.572314 23.583614 -1.029529 5.977524 -29.976006 1.796624 6.038302 22.490166 -4.910209 1.597656 8.174496 -2.439480 2.277068 -5.069112 -4.422966 -0.009698 -70.913254 19.480276 3.596639 -13.774111 -1.519094 -19.075289 -8.122169 15.049839 -2.120464 16.259956 0.580469 -0.018848 75.584595 -7.765245 3.782640 40.940388 -2.460912 28.168705 16.356268 -5.055692 -1.501888 -20.454782 2.518851 -4.451821 27.121883 -1.256300 -2.396501 13.527359 -8.802352 -10.223775 8.552801 2.597439 1.368426 24.667866 1.342895 2.220342 -13.845715 5.252411 13.588419 
-1.252791 49.755890 4.893329 -3.866404 -0.340196 -14.609691 23.217665 -1.184079 6.358682 -29.106058 -0.038803 6.611327 21.651657 -3.924073 1.692843 8.381396 -2.185833 2.237680 -4.424570 -4.354716 -0.009708 -69.294998 19.157112 4.317083 -13.281377 -1.229881 -15.747720 -8.197204 15.849297 -2.261388 15.468975 1.364583 -0.009642 75.977913 -6.048427 4.817010 42.294853 -2.366922 26.749754 15.904666 -3.745092 -1.076624 -19.454641 2.069894 -3.764617 21.161739 -1.475171 -2.014028 16.018169 -10.619975 -9.371350 8.995183 2.137186 1.307056 25.587748 1.309018 2.270714 -14.117419 3.903251 13.257764 
-1.416344 49.597256 5.829040 -4.628566 -1.250532 -14.046588 23.511292 0.126040 6.875027 -27.526474 -1.959025 6.742003 20.978184 -3.279546 1.848266 7.936529 -1.824781 2.237370 -3.682391 -4.403670 -0.009717 -67.890717 18.349743 3.764402 -12.558239 -0.903857 -11.550694 -8.692478 16.477871 -2.492266 15.361700 2.253272 -0.009793 76.310242 -4.445992 5.191521 42.971096 -2.371477 26.921141 14.094646 -0.923432 -0.292361 -17.910295 2.665158 -4.065917 18.122284 -1.572530 -1.811339 17.154579 -12.443405 -8.617978 11.424383 2.870568 1.049167 24.982681 1.336881 2.186875 -12.872403 3.468100 13.064710 
-1.579891 49.438625 6.764763 -5.392076 -2.155905 -13.466796 23.819061 1.433265 7.404900 -25.961060 -3.878755 6.812281 20.318090 -2.644883 1.994120 7.491274 -1.473486 2.236844 -2.940214 -4.462389 -0.009723 -66.488350 17.556416 3.189870 -11.864023 -0.517316 -7.343547 -9.192504 17.113380 -2.734945 15.254427 3.151728 -0.009944 76.651367 -2.851436 5.573790 43.642849 -2.383721 27.088011 12.311304 1.910324 0.406944 -16.376307 3.269780 -4.331526 15.068362 -1.637627 -1.619742 18.321842 -14.302817 -7.808282 13.858352 3.601483 0.784801 24.374380 1.362429 2.189599 -11.618229 2.957518 12.877069 
